STARTFONT 2.1
FONT -FontForge-Comic Sans MS-Book-R-Normal-SansMS-14-100-100-100-P-78-ISO10646-1
SIZE 10 100 100
FONTBOUNDINGBOX 14 17 -1 -4
COMMENT "Generated by fontforge, http://fontforge.sourceforge.net"
COMMENT "(c) 2018 Microsoft Corporation. All Rights Reserved."
STARTPROPERTIES 39
FOUNDRY "FontForge"
FAMILY_NAME "Comic Sans MS"
WEIGHT_NAME "Book"
SLANT "R"
SETWIDTH_NAME "Normal"
ADD_STYLE_NAME "SansMS"
PIXEL_SIZE 14
POINT_SIZE 100
RESOLUTION_X 100
RESOLUTION_Y 100
SPACING "P"
AVERAGE_WIDTH 78
CHARSET_REGISTRY "ISO10646"
CHARSET_ENCODING "1"
FONTNAME_REGISTRY ""
CHARSET_COLLECTIONS "ISO10646-1"
FONT_NAME "ComicSansMS"
FACE_NAME "Comic Sans MS"
COPYRIGHT "(c) 2018 Microsoft Corporation. All Rights Reserved."
FONT_VERSION "5.14"
FONT_ASCENT 11
FONT_DESCENT 3
UNDERLINE_POSITION -2
UNDERLINE_THICKNESS 2
X_HEIGHT 6
CAP_HEIGHT 10
RAW_ASCENT 799
RAW_DESCENT 200
NORM_SPACE 4
RELATIVE_WEIGHT 40
RELATIVE_SETWIDTH 50
SUPERSCRIPT_X 0
SUPERSCRIPT_Y 6
SUPERSCRIPT_SIZE 9
SUBSCRIPT_X 0
SUBSCRIPT_Y 2
SUBSCRIPT_SIZE 9
AVG_LOWERCASE_WIDTH 72
AVG_UPPERCASE_WIDTH 97
ENDPROPERTIES
CHARS 126
STARTCHAR space
ENCODING 32
SWIDTH 298 0
DWIDTH 4 0
BBX 1 1 0 0
BITMAP
00
ENDCHAR
STARTCHAR exclam
ENCODING 33
SWIDTH 237 0
DWIDTH 3 0
BBX 1 11 1 0
BITMAP
80
80
80
80
80
80
80
80
80
00
80
ENDCHAR
STARTCHAR quotedbl
ENCODING 34
SWIDTH 424 0
DWIDTH 6 0
BBX 4 4 1 7
BITMAP
90
90
90
90
ENDCHAR
STARTCHAR numbersign
ENCODING 35
SWIDTH 842 0
DWIDTH 12 0
BBX 11 11 0 0
BITMAP
0840
0840
0840
7FE0
1080
1080
2100
FFC0
2100
4200
4200
ENDCHAR
STARTCHAR dollar
ENCODING 36
SWIDTH 693 0
DWIDTH 10 0
BBX 6 15 2 -2
BITMAP
20
20
78
60
A0
A0
A0
70
28
24
24
28
F0
20
20
ENDCHAR
STARTCHAR percent
ENCODING 37
SWIDTH 820 0
DWIDTH 11 0
BBX 10 11 0 0
BITMAP
6100
9200
9200
6600
0400
0C00
0800
1980
1240
3240
2180
ENDCHAR
STARTCHAR ampersand
ENCODING 38
SWIDTH 654 0
DWIDTH 9 0
BBX 7 11 1 0
BITMAP
0C
14
14
18
10
6A
CA
8E
84
8E
72
ENDCHAR
STARTCHAR quotesingle
ENCODING 39
SWIDTH 388 0
DWIDTH 5 0
BBX 1 4 2 7
BITMAP
80
80
80
80
ENDCHAR
STARTCHAR parenleft
ENCODING 40
SWIDTH 366 0
DWIDTH 5 0
BBX 4 14 1 -3
BITMAP
10
20
40
40
80
80
80
80
80
80
80
40
20
10
ENDCHAR
STARTCHAR parenright
ENCODING 41
SWIDTH 366 0
DWIDTH 5 0
BBX 4 14 0 -3
BITMAP
80
40
20
20
10
10
10
10
10
10
10
20
40
80
ENDCHAR
STARTCHAR asterisk
ENCODING 42
SWIDTH 529 0
DWIDTH 6 0
BBX 5 5 0 5
BITMAP
20
F8
70
78
48
ENDCHAR
STARTCHAR plus
ENCODING 43
SWIDTH 480 0
DWIDTH 7 0
BBX 5 5 1 2
BITMAP
20
20
F8
20
20
ENDCHAR
STARTCHAR comma
ENCODING 44
SWIDTH 276 0
DWIDTH 4 0
BBX 2 3 1 -2
BITMAP
40
C0
80
ENDCHAR
STARTCHAR hyphen
ENCODING 45
SWIDTH 416 0
DWIDTH 5 0
BBX 4 1 0 3
BITMAP
F0
ENDCHAR
STARTCHAR period
ENCODING 46
SWIDTH 249 0
DWIDTH 3 0
BBX 1 2 1 0
BITMAP
80
80
ENDCHAR
STARTCHAR slash
ENCODING 47
SWIDTH 511 0
DWIDTH 7 0
BBX 6 12 0 -1
BITMAP
04
04
08
08
10
10
20
20
40
40
80
80
ENDCHAR
STARTCHAR zero
ENCODING 48
SWIDTH 610 0
DWIDTH 9 0
BBX 7 11 1 0
BITMAP
38
44
82
82
82
82
82
82
82
44
38
ENDCHAR
STARTCHAR one
ENCODING 49
SWIDTH 450 0
DWIDTH 6 0
BBX 3 11 2 0
BITMAP
40
C0
40
40
40
40
40
40
40
40
E0
ENDCHAR
STARTCHAR two
ENCODING 50
SWIDTH 610 0
DWIDTH 9 0
BBX 7 11 1 0
BITMAP
7C
82
02
02
04
08
30
40
80
80
FE
ENDCHAR
STARTCHAR three
ENCODING 51
SWIDTH 610 0
DWIDTH 9 0
BBX 6 11 1 0
BITMAP
78
84
04
04
04
38
04
04
04
84
78
ENDCHAR
STARTCHAR four
ENCODING 52
SWIDTH 610 0
DWIDTH 9 0
BBX 8 11 1 0
BITMAP
04
0C
14
14
24
44
84
FF
04
04
04
ENDCHAR
STARTCHAR five
ENCODING 53
SWIDTH 610 0
DWIDTH 9 0
BBX 7 11 1 0
BITMAP
FE
80
80
B8
C4
C2
02
02
02
84
78
ENDCHAR
STARTCHAR six
ENCODING 54
SWIDTH 610 0
DWIDTH 9 0
BBX 7 11 1 0
BITMAP
08
10
20
40
FC
82
82
82
82
44
38
ENDCHAR
STARTCHAR seven
ENCODING 55
SWIDTH 610 0
DWIDTH 9 0
BBX 8 11 0 0
BITMAP
FF
02
04
04
08
08
10
10
10
20
20
ENDCHAR
STARTCHAR eight
ENCODING 56
SWIDTH 610 0
DWIDTH 9 0
BBX 7 11 1 0
BITMAP
7C
82
82
82
82
7C
82
82
82
82
7C
ENDCHAR
STARTCHAR nine
ENCODING 57
SWIDTH 610 0
DWIDTH 9 0
BBX 7 11 1 0
BITMAP
38
44
82
82
82
42
3E
04
04
08
30
ENDCHAR
STARTCHAR colon
ENCODING 58
SWIDTH 298 0
DWIDTH 4 0
BBX 1 6 1 1
BITMAP
80
80
00
00
80
80
ENDCHAR
STARTCHAR semicolon
ENCODING 59
SWIDTH 298 0
DWIDTH 4 0
BBX 2 9 1 -2
BITMAP
80
80
00
00
00
00
40
C0
80
ENDCHAR
STARTCHAR less
ENCODING 60
SWIDTH 381 0
DWIDTH 5 0
BBX 4 6 0 1
BITMAP
10
20
40
C0
20
10
ENDCHAR
STARTCHAR equal
ENCODING 61
SWIDTH 510 0
DWIDTH 7 0
BBX 5 4 1 2
BITMAP
F8
00
00
F8
ENDCHAR
STARTCHAR greater
ENCODING 62
SWIDTH 381 0
DWIDTH 6 0
BBX 4 6 1 1
BITMAP
80
40
20
30
40
80
ENDCHAR
STARTCHAR question
ENCODING 63
SWIDTH 523 0
DWIDTH 7 0
BBX 6 11 0 -1
BITMAP
F0
0C
04
04
08
10
60
00
00
00
40
ENDCHAR
STARTCHAR at
ENCODING 64
SWIDTH 931 0
DWIDTH 13 0
BBX 11 11 1 0
BITMAP
1F00
20C0
4C20
9820
A620
A620
9DC0
8000
4000
2080
1F00
ENDCHAR
STARTCHAR A
ENCODING 65
SWIDTH 731 0
DWIDTH 9 0
BBX 8 11 1 0
BITMAP
08
08
08
14
14
24
3E
22
42
41
81
ENDCHAR
STARTCHAR B
ENCODING 66
SWIDTH 630 0
DWIDTH 9 0
BBX 7 11 1 0
BITMAP
F0
88
84
84
84
F8
84
82
82
84
F8
ENDCHAR
STARTCHAR C
ENCODING 67
SWIDTH 602 0
DWIDTH 8 0
BBX 7 11 0 0
BITMAP
1E
22
22
40
40
80
80
80
80
42
3C
ENDCHAR
STARTCHAR D
ENCODING 68
SWIDTH 721 0
DWIDTH 10 0
BBX 8 11 1 0
BITMAP
C0
B0
8C
82
81
81
81
81
81
82
7C
ENDCHAR
STARTCHAR E
ENCODING 69
SWIDTH 624 0
DWIDTH 9 0
BBX 7 11 1 0
BITMAP
FE
80
80
80
80
FC
80
80
80
80
7C
ENDCHAR
STARTCHAR F
ENCODING 70
SWIDTH 606 0
DWIDTH 9 0
BBX 7 11 1 0
BITMAP
FE
80
80
80
80
FC
80
80
80
80
80
ENDCHAR
STARTCHAR G
ENCODING 71
SWIDTH 679 0
DWIDTH 10 0
BBX 9 11 0 0
BITMAP
1E00
2100
2000
4000
4000
9F80
8080
8080
8100
4200
3C00
ENDCHAR
STARTCHAR H
ENCODING 72
SWIDTH 768 0
DWIDTH 11 0
BBX 9 11 1 0
BITMAP
8080
8080
8080
8080
8080
FF80
8080
8080
8080
8080
8080
ENDCHAR
STARTCHAR I
ENCODING 73
SWIDTH 546 0
DWIDTH 8 0
BBX 7 11 0 0
BITMAP
FE
10
10
10
10
10
10
10
10
10
FE
ENDCHAR
STARTCHAR J
ENCODING 74
SWIDTH 665 0
DWIDTH 9 0
BBX 8 11 1 0
BITMAP
3F
04
04
04
04
04
04
04
84
CC
38
ENDCHAR
STARTCHAR K
ENCODING 75
SWIDTH 610 0
DWIDTH 9 0
BBX 7 11 1 0
BITMAP
82
84
88
90
E0
C0
C0
A0
90
88
86
ENDCHAR
STARTCHAR L
ENCODING 76
SWIDTH 550 0
DWIDTH 8 0
BBX 6 11 1 0
BITMAP
80
80
80
80
80
80
80
80
80
80
FC
ENDCHAR
STARTCHAR M
ENCODING 77
SWIDTH 882 0
DWIDTH 12 0
BBX 10 11 1 0
BITMAP
2100
2100
2100
2300
5300
5280
5480
5480
9C80
8840
8840
ENDCHAR
STARTCHAR N
ENCODING 78
SWIDTH 796 0
DWIDTH 11 0
BBX 10 11 0 0
BITMAP
C040
C040
A040
9040
9040
8840
8440
8240
8140
80C0
8040
ENDCHAR
STARTCHAR O
ENCODING 79
SWIDTH 798 0
DWIDTH 11 0
BBX 10 11 0 0
BITMAP
1F00
2080
4040
4040
8040
8040
8040
8080
8080
4100
3E00
ENDCHAR
STARTCHAR P
ENCODING 80
SWIDTH 520 0
DWIDTH 7 0
BBX 6 11 0 0
BITMAP
F0
88
84
84
84
88
F0
80
80
80
80
ENDCHAR
STARTCHAR Q
ENCODING 81
SWIDTH 876 0
DWIDTH 12 0
BBX 12 13 0 -2
BITMAP
0F00
30C0
4040
C020
8020
8020
8020
8420
4660
21C0
1FC0
0060
0030
ENDCHAR
STARTCHAR R
ENCODING 82
SWIDTH 628 0
DWIDTH 9 0
BBX 7 11 1 0
BITMAP
E0
98
84
84
84
8C
F0
B0
88
84
82
ENDCHAR
STARTCHAR S
ENCODING 83
SWIDTH 693 0
DWIDTH 10 0
BBX 8 11 1 0
BITMAP
1E
20
40
40
40
3E
01
01
01
82
7C
ENDCHAR
STARTCHAR T
ENCODING 84
SWIDTH 679 0
DWIDTH 10 0
BBX 9 11 0 0
BITMAP
FF80
0800
0800
0800
0800
0800
0800
0800
0800
0800
0800
ENDCHAR
STARTCHAR U
ENCODING 85
SWIDTH 736 0
DWIDTH 10 0
BBX 8 11 1 0
BITMAP
81
81
81
81
81
81
81
81
82
42
3C
ENDCHAR
STARTCHAR V
ENCODING 86
SWIDTH 649 0
DWIDTH 9 0
BBX 8 11 1 0
BITMAP
81
81
82
42
44
44
24
28
28
10
10
ENDCHAR
STARTCHAR W
ENCODING 87
SWIDTH 1039 0
DWIDTH 14 0
BBX 12 11 1 0
BITMAP
8410
8410
8420
4A20
4A40
4A40
5240
5280
2280
2300
2100
ENDCHAR
STARTCHAR X
ENCODING 88
SWIDTH 723 0
DWIDTH 10 0
BBX 8 11 0 0
BITMAP
81
81
42
24
18
18
18
24
42
81
80
ENDCHAR
STARTCHAR Y
ENCODING 89
SWIDTH 635 0
DWIDTH 9 0
BBX 8 11 0 0
BITMAP
81
42
62
24
14
14
08
08
10
10
10
ENDCHAR
STARTCHAR Z
ENCODING 90
SWIDTH 693 0
DWIDTH 10 0
BBX 9 11 0 0
BITMAP
FF80
0100
0200
0400
0800
1000
1000
2000
4000
8000
FF80
ENDCHAR
STARTCHAR bracketleft
ENCODING 91
SWIDTH 376 0
DWIDTH 5 0
BBX 3 14 1 -3
BITMAP
E0
80
80
80
80
80
80
80
80
80
80
80
80
E0
ENDCHAR
STARTCHAR backslash
ENCODING 92
SWIDTH 549 0
DWIDTH 8 0
BBX 6 11 1 -1
BITMAP
80
C0
40
20
20
10
10
08
08
04
04
ENDCHAR
STARTCHAR bracketright
ENCODING 93
SWIDTH 376 0
DWIDTH 5 0
BBX 3 14 1 -3
BITMAP
E0
20
20
20
20
20
20
20
20
20
20
20
20
E0
ENDCHAR
STARTCHAR asciicircum
ENCODING 94
SWIDTH 581 0
DWIDTH 9 0
BBX 6 4 1 7
BITMAP
10
30
48
84
ENDCHAR
STARTCHAR underscore
ENCODING 95
SWIDTH 626 0
DWIDTH 9 0
BBX 9 1 0 -2
BITMAP
FF80
ENDCHAR
STARTCHAR grave
ENCODING 96
SWIDTH 556 0
DWIDTH 8 0
BBX 3 3 1 8
BITMAP
80
40
20
ENDCHAR
STARTCHAR a
ENCODING 97
SWIDTH 511 0
DWIDTH 7 0
BBX 6 7 1 0
BITMAP
38
48
88
88
88
88
74
ENDCHAR
STARTCHAR b
ENCODING 98
SWIDTH 593 0
DWIDTH 8 0
BBX 6 11 1 0
BITMAP
80
80
80
80
B0
C8
84
84
84
88
F0
ENDCHAR
STARTCHAR c
ENCODING 99
SWIDTH 513 0
DWIDTH 7 0
BBX 5 7 1 0
BITMAP
30
48
80
80
80
88
70
ENDCHAR
STARTCHAR d
ENCODING 100
SWIDTH 587 0
DWIDTH 8 0
BBX 6 11 1 0
BITMAP
04
04
04
04
3C
44
84
84
84
84
7C
ENDCHAR
STARTCHAR e
ENCODING 101
SWIDTH 547 0
DWIDTH 8 0
BBX 6 7 1 0
BITMAP
38
44
8C
B0
C0
84
78
ENDCHAR
STARTCHAR f
ENCODING 102
SWIDTH 508 0
DWIDTH 7 0
BBX 6 11 1 0
BITMAP
1C
30
20
20
FC
20
20
20
20
20
20
ENDCHAR
STARTCHAR g
ENCODING 103
SWIDTH 530 0
DWIDTH 7 0
BBX 5 11 1 -4
BITMAP
30
48
88
88
88
98
68
08
08
10
F0
ENDCHAR
STARTCHAR h
ENCODING 104
SWIDTH 577 0
DWIDTH 7 0
BBX 5 11 1 0
BITMAP
80
80
80
80
B0
C8
88
88
88
88
88
ENDCHAR
STARTCHAR i
ENCODING 105
SWIDTH 280 0
DWIDTH 4 0
BBX 1 10 1 0
BITMAP
80
00
00
80
80
80
80
80
80
80
ENDCHAR
STARTCHAR j
ENCODING 106
SWIDTH 403 0
DWIDTH 6 0
BBX 4 14 0 -4
BITMAP
10
00
00
10
10
10
10
10
10
10
10
90
90
60
ENDCHAR
STARTCHAR k
ENCODING 107
SWIDTH 540 0
DWIDTH 8 0
BBX 6 11 1 0
BITMAP
80
80
80
80
84
98
A0
F0
88
88
84
ENDCHAR
STARTCHAR l
ENCODING 108
SWIDTH 273 0
DWIDTH 4 0
BBX 1 11 1 0
BITMAP
80
80
80
80
80
80
80
80
80
80
80
ENDCHAR
STARTCHAR m
ENCODING 109
SWIDTH 776 0
DWIDTH 11 0
BBX 9 7 1 0
BITMAP
BB00
CC80
8880
8880
8880
8880
8880
ENDCHAR
STARTCHAR n
ENCODING 110
SWIDTH 523 0
DWIDTH 7 0
BBX 5 7 1 0
BITMAP
B0
C8
88
88
88
88
88
ENDCHAR
STARTCHAR o
ENCODING 111
SWIDTH 525 0
DWIDTH 7 0
BBX 5 7 1 0
BITMAP
70
88
88
88
88
88
70
ENDCHAR
STARTCHAR p
ENCODING 112
SWIDTH 534 0
DWIDTH 7 0
BBX 5 11 1 -4
BITMAP
F0
88
88
88
88
88
F0
80
80
80
80
ENDCHAR
STARTCHAR q
ENCODING 113
SWIDTH 520 0
DWIDTH 7 0
BBX 5 11 1 -4
BITMAP
38
48
88
88
88
88
78
08
08
08
08
ENDCHAR
STARTCHAR r
ENCODING 114
SWIDTH 480 0
DWIDTH 7 0
BBX 5 7 1 0
BITMAP
B8
C8
88
80
80
80
80
ENDCHAR
STARTCHAR s
ENCODING 115
SWIDTH 486 0
DWIDTH 7 0
BBX 5 7 1 0
BITMAP
38
C8
80
70
08
88
70
ENDCHAR
STARTCHAR t
ENCODING 116
SWIDTH 471 0
DWIDTH 7 0
BBX 5 10 1 0
BITMAP
20
20
20
F8
20
20
20
20
20
20
ENDCHAR
STARTCHAR u
ENCODING 117
SWIDTH 520 0
DWIDTH 7 0
BBX 5 7 1 0
BITMAP
88
88
88
88
88
88
78
ENDCHAR
STARTCHAR v
ENCODING 118
SWIDTH 486 0
DWIDTH 7 0
BBX 5 7 1 0
BITMAP
88
88
50
50
50
20
20
ENDCHAR
STARTCHAR w
ENCODING 119
SWIDTH 684 0
DWIDTH 10 0
BBX 9 7 0 0
BITMAP
8880
8880
5500
5500
5500
2200
2200
ENDCHAR
STARTCHAR x
ENCODING 120
SWIDTH 590 0
DWIDTH 8 0
BBX 7 7 0 0
BITMAP
82
44
38
10
28
44
82
ENDCHAR
STARTCHAR y
ENCODING 121
SWIDTH 520 0
DWIDTH 7 0
BBX 7 11 0 -4
BITMAP
82
84
44
48
28
30
10
20
20
40
40
ENDCHAR
STARTCHAR z
ENCODING 122
SWIDTH 538 0
DWIDTH 7 0
BBX 5 7 1 0
BITMAP
F8
10
10
20
40
40
F8
ENDCHAR
STARTCHAR braceleft
ENCODING 123
SWIDTH 366 0
DWIDTH 5 0
BBX 5 14 0 -3
BITMAP
38
40
40
40
40
40
C0
80
40
40
40
40
20
38
ENDCHAR
STARTCHAR bar
ENCODING 124
SWIDTH 421 0
DWIDTH 5 0
BBX 1 14 2 -2
BITMAP
80
80
80
80
80
80
80
80
80
80
80
80
80
80
ENDCHAR
STARTCHAR braceright
ENCODING 125
SWIDTH 366 0
DWIDTH 5 0
BBX 4 14 0 -3
BITMAP
C0
20
20
20
20
20
30
10
20
20
20
20
20
C0
ENDCHAR
STARTCHAR asciitilde
ENCODING 126
SWIDTH 597 0
DWIDTH 8 0
BBX 7 3 0 3
BITMAP
62
D6
8C
ENDCHAR
STARTCHAR uni00A0
ENCODING 160
SWIDTH 298 0
DWIDTH 4 0
BBX 1 1 0 0
BITMAP
00
ENDCHAR
STARTCHAR exclamdown
ENCODING 161
SWIDTH 237 0
DWIDTH 3 0
BBX 1 11 0 0
BITMAP
80
00
80
80
80
80
80
80
80
80
80
ENDCHAR
STARTCHAR cent
ENCODING 162
SWIDTH 623 0
DWIDTH 9 0
BBX 5 12 1 0
BITMAP
20
20
78
68
A0
A0
A0
A8
A8
70
20
20
ENDCHAR
STARTCHAR sterling
ENCODING 163
SWIDTH 793 0
DWIDTH 12 0
BBX 10 11 0 0
BITMAP
0F80
1000
2000
2000
2000
FF00
2000
2000
2000
2040
7F80
ENDCHAR
STARTCHAR currency
ENCODING 164
SWIDTH 611 0
DWIDTH 9 0
BBX 7 6 1 2
BITMAP
C6
7C
48
48
78
84
ENDCHAR
STARTCHAR yen
ENCODING 165
SWIDTH 635 0
DWIDTH 9 0
BBX 7 11 1 0
BITMAP
82
C2
44
64
28
FE
10
7C
10
10
10
ENDCHAR
STARTCHAR brokenbar
ENCODING 166
SWIDTH 404 0
DWIDTH 6 0
BBX 1 11 3 0
BITMAP
80
80
80
80
80
00
80
80
80
80
80
ENDCHAR
STARTCHAR section
ENCODING 167
SWIDTH 634 0
DWIDTH 9 0
BBX 6 11 2 0
BITMAP
78
8C
80
E0
98
84
74
0C
84
C4
78
ENDCHAR
STARTCHAR dieresis
ENCODING 168
SWIDTH 556 0
DWIDTH 8 0
BBX 5 1 1 8
BITMAP
88
ENDCHAR
STARTCHAR copyright
ENCODING 169
SWIDTH 795 0
DWIDTH 11 0
BBX 10 8 0 3
BITMAP
1F00
6080
4E40
B040
A240
9C80
4180
3E00
ENDCHAR
STARTCHAR ordfeminine
ENCODING 170
SWIDTH 526 0
DWIDTH 8 0
BBX 6 5 0 6
BITMAP
78
88
88
9C
74
ENDCHAR
STARTCHAR guillemotleft
ENCODING 171
SWIDTH 577 0
DWIDTH 8 0
BBX 6 6 0 1
BITMAP
24
6C
D8
90
48
24
ENDCHAR
STARTCHAR logicalnot
ENCODING 172
SWIDTH 480 0
DWIDTH 7 0
BBX 6 3 0 2
BITMAP
FC
04
04
ENDCHAR
STARTCHAR uni00AD
ENCODING 173
SWIDTH 416 0
DWIDTH 5 0
BBX 4 1 0 3
BITMAP
F0
ENDCHAR
STARTCHAR registered
ENCODING 174
SWIDTH 795 0
DWIDTH 11 0
BBX 10 9 0 2
BITMAP
1F00
6080
4E40
8A40
9E40
9C40
A480
4180
3E00
ENDCHAR
STARTCHAR macron
ENCODING 175
SWIDTH 626 0
DWIDTH 9 0
BBX 9 1 0 12
BITMAP
FF80
ENDCHAR
STARTCHAR degree
ENCODING 176
SWIDTH 409 0
DWIDTH 6 0
BBX 5 5 0 7
BITMAP
70
88
88
88
70
ENDCHAR
STARTCHAR plusminus
ENCODING 177
SWIDTH 480 0
DWIDTH 7 0
BBX 5 7 1 0
BITMAP
20
20
F8
20
20
00
F8
ENDCHAR
STARTCHAR uni00B2
ENCODING 178
SWIDTH 650 0
DWIDTH 9 0
BBX 4 6 3 6
BITMAP
60
90
10
60
C0
F0
ENDCHAR
STARTCHAR uni00B3
ENCODING 179
SWIDTH 650 0
DWIDTH 9 0
BBX 4 6 2 6
BITMAP
E0
10
20
10
10
E0
ENDCHAR
STARTCHAR acute
ENCODING 180
SWIDTH 556 0
DWIDTH 7 0
BBX 3 3 1 8
BITMAP
20
40
80
ENDCHAR
STARTCHAR mu
ENCODING 181
SWIDTH 520 0
DWIDTH 7 0
BBX 8 10 -1 -3
BITMAP
11
31
21
62
42
42
7E
40
80
80
ENDCHAR
STARTCHAR paragraph
ENCODING 182
SWIDTH 693 0
DWIDTH 10 0
BBX 8 12 1 -1
BITMAP
0F
35
45
85
85
85
CE
3A
0A
0A
14
14
ENDCHAR
STARTCHAR periodcentered
ENCODING 183
SWIDTH 249 0
DWIDTH 3 0
BBX 1 2 1 5
BITMAP
80
80
ENDCHAR
STARTCHAR cedilla
ENCODING 184
SWIDTH 556 0
DWIDTH 8 0
BBX 4 3 1 -3
BITMAP
60
10
F0
ENDCHAR
STARTCHAR uni00B9
ENCODING 185
SWIDTH 650 0
DWIDTH 9 0
BBX 3 6 3 6
BITMAP
40
C0
40
40
40
E0
ENDCHAR
STARTCHAR ordmasculine
ENCODING 186
SWIDTH 449 0
DWIDTH 7 0
BBX 6 5 0 6
BITMAP
78
C4
84
CC
78
ENDCHAR
STARTCHAR guillemotright
ENCODING 187
SWIDTH 577 0
DWIDTH 8 0
BBX 6 6 1 1
BITMAP
90
D8
6C
24
48
90
ENDCHAR
STARTCHAR onequarter
ENCODING 188
SWIDTH 650 0
DWIDTH 9 0
BBX 7 15 1 -3
BITMAP
10
30
10
10
10
38
00
FE
00
10
30
50
F8
10
10
ENDCHAR
STARTCHAR onehalf
ENCODING 189
SWIDTH 650 0
DWIDTH 9 0
BBX 7 15 1 -3
BITMAP
10
30
10
10
10
38
00
FE
00
38
28
08
10
20
38
ENDCHAR
STARTCHAR threequarters
ENCODING 190
SWIDTH 650 0
DWIDTH 9 0
BBX 7 15 1 -3
BITMAP
30
08
18
08
08
38
00
FE
00
10
30
50
F8
10
10
ENDCHAR
ENDFONT
